<svg width="37" height="37" viewBox="0 0 37 37" fill="none" xmlns="http://www.w3.org/2000/svg">
<path d="M18.3822 3.7C18.7121 2.46667 18.9949 1.23333 19.3248 0C19.7962 0.426923 20.2204 0.901282 20.456 1.51795C21.5873 3.22564 22.7656 4.93333 23.9439 6.64103C24.321 7.30513 24.6981 7.96923 25.1694 8.5859C25.4994 8.91795 25.7822 9.25 26.0178 9.62949C29.6943 9.53462 33.3236 9.53462 37 9.48718C36.7643 9.67692 36.5287 9.9141 36.3401 10.1987C35.6802 11.2423 34.879 12.191 34.3134 13.2821C33.4178 14.5628 32.5223 15.8436 31.6739 17.1244C31.5325 17.4564 31.2968 17.6936 30.9669 17.8833C30.6841 18.1679 30.4955 18.5 30.4484 18.9269C30.5898 19.4487 30.7783 19.9705 30.9669 20.4923C31.2025 20.6346 31.2497 20.9192 31.3439 21.1564C31.721 22.3897 32.1923 23.6231 32.5223 24.8564C33.0408 26.4692 33.6064 28.0821 34.172 29.6949C33.1822 29.3628 32.1923 28.9833 31.2497 28.6513L31.1554 28.4141L30.9197 28.3192C30.5427 26.8962 29.9771 25.5679 29.6 24.1923C29.2701 23.1962 28.9401 22.2 28.6102 21.2513C29.3172 20.3026 29.9771 19.3064 30.5898 18.2628C30.8726 17.8833 31.2025 17.5038 31.5325 17.1718C32.3337 16.0333 33.0879 14.8949 33.8892 13.8038C34.3134 13.2346 34.5962 12.5231 35.0204 11.9538C31.3439 12.0013 27.6675 12.0487 23.9911 12.0962C23.0013 10.6731 22.0586 9.25 21.0688 7.82692C20.6917 7.16282 20.2675 6.49872 19.7962 5.88205C19.3248 5.12308 18.8535 4.41154 18.3822 3.7ZM11.5006 12.7128C12.0662 12.4282 12.679 12.191 13.2917 12.0487C13.1032 12.7603 12.9618 13.4718 12.7261 14.1833C11.0293 14.7526 9.33247 15.3692 7.58852 15.8436C7.11719 15.5115 6.64585 15.1795 6.22165 14.8474L5.93884 14.5628C7.44712 14.041 9.04967 13.6141 10.558 13.0923C10.8879 13.0449 11.2178 12.9026 11.5006 12.7128Z" fill="#0BAEEC"/>
<path d="M11.972 7.77945C12.3962 5.97688 12.9146 4.17432 13.4331 2.41919C14.1401 3.17816 14.8 4.03201 15.3185 4.98073V5.12304C14.8471 6.73586 14.5172 8.44355 13.9516 10.0089C13.6217 10.673 13.386 11.3371 13.2446 12.0487C12.6318 12.191 12.0191 12.4282 11.4535 12.7128C11.1707 12.9025 10.8408 12.9974 10.5108 13.0923C10.935 11.3371 11.5006 9.58201 11.972 7.77945ZM6.22166 14.8474C6.64586 15.1794 7.1172 15.5115 7.58853 15.8435C6.50446 16.223 5.37325 16.5551 4.28917 16.9346C4.1949 17.2192 4.76051 17.3615 4.90191 17.5987C3.95923 17.8359 3.01656 18.2153 2.12102 18.6423C2.07389 18.4525 1.93248 18.2628 1.79108 18.1679L0 16.8871C2.07389 16.1282 4.14777 15.6064 6.22166 14.8474ZM9.14395 23.7179C9.85095 24.2397 10.4166 24.9038 11.1236 25.3782C11.1236 28.1294 11.1236 30.8807 11.1236 33.632C10.4637 34.1538 9.80382 34.6756 9.14395 35.1974C9.14395 31.3551 9.09681 27.5128 9.14395 23.7179Z" fill="#FFF240"/>
<path d="M17.5337 2.51406L18.335 3.69996C18.7592 4.4115 19.2777 5.0756 19.8433 5.69227C20.3146 6.30893 20.7388 6.9256 21.0688 7.63714C22.0586 9.06022 23.0013 10.4833 23.9911 11.9064L35.0204 11.7641C34.5962 12.3333 34.2662 13.0448 33.8892 13.6141C33.0879 14.7525 32.3337 15.891 31.5325 16.982C31.2025 17.3141 30.8726 17.6935 30.5898 18.073C29.9771 19.1166 29.3172 20.1128 28.6102 21.0615C28.9401 22.0577 29.27 23.0064 29.6 24.0025C29.9771 25.4256 30.5427 26.7538 30.9197 28.1294L31.1554 28.2243L31.2497 28.4615C31.6267 29.6474 31.9567 30.8807 32.3809 32.0666C31.4382 31.6871 30.4013 31.4974 29.4586 31.0705C28.5159 30.6436 27.5261 30.3589 26.5363 30.0743L26.5834 29.8846C24.9809 29.4102 23.4255 28.841 21.87 28.3192C21.2573 28.841 20.5974 29.3153 19.9847 29.8371L19.7962 30.1218C19.4662 30.2641 19.1834 30.4538 18.9478 30.691C17.3923 31.9243 15.7898 33.1577 14.2344 34.4384C13.8573 34.723 13.386 34.9128 13.056 35.2448C13.056 31.4974 13.056 27.75 13.0089 23.9551C13.1032 23.5282 12.6318 23.3384 12.3962 23.1487C10.7936 22.0102 9.28533 20.7294 7.54138 19.7333C6.88151 19.3064 6.3159 18.832 5.7503 18.3102C5.46749 18.0256 5.13756 17.7884 4.80762 17.5512C4.61909 17.3615 4.10061 17.2192 4.19488 16.8871C5.27896 16.4602 6.41017 16.1756 7.49425 15.7961C9.23819 15.3218 10.935 14.7051 12.6318 14.1359L14.47 13.5666C15.0828 10.8628 15.9312 8.20637 16.5911 5.50252C16.8739 4.45893 17.1567 3.46278 17.4395 2.41919" fill="white"/>
<path d="M15.6013 4.0321C15.9784 4.5539 16.3083 5.07569 16.6854 5.59749C16.0255 8.30134 15.1771 10.9577 14.5644 13.6616C13.9516 13.8513 13.3389 13.9936 12.7261 14.2308C12.9618 13.5193 13.1032 12.8077 13.2917 12.0962C13.4332 11.3847 13.6688 10.6731 13.9988 10.0565C14.5644 8.44364 14.8472 6.78339 15.3185 5.17057C15.4128 4.74364 15.507 4.41159 15.6013 4.0321ZM2.12105 18.6424C3.01659 18.2154 3.95926 17.8834 4.90194 17.5988C5.23188 17.8359 5.56181 18.0731 5.84461 18.3577C6.41022 18.8795 6.97582 19.3539 7.6357 19.7808C9.33251 20.777 10.8408 22.0577 12.4905 23.1962C12.7733 23.4334 13.1975 23.5757 13.1032 24.0026C13.1032 27.7501 13.1032 31.4975 13.1503 35.2924C12.8675 35.4821 12.6319 35.7667 12.3962 36.0513C12.0191 36.3834 11.5949 36.668 11.2179 37.0001C11.2179 35.8616 11.2179 34.7231 11.2179 33.5847C11.2179 30.8334 11.2179 28.0821 11.2179 25.3308C10.4637 24.8565 9.89812 24.1924 9.23825 23.6706C8.76691 23.2911 8.29557 23.0539 7.7771 22.7218L4.2892 20.1603C3.58219 19.5911 2.82805 19.1167 2.07391 18.6898L2.12105 18.6424ZM20.079 29.8847C20.6917 29.3629 21.3516 28.8885 21.9644 28.3667C23.5198 28.936 25.0752 29.4577 26.6777 29.9321L26.6306 30.1218C27.6204 30.4539 28.5631 30.7859 29.5529 31.118C29.8357 31.9718 30.1185 32.7783 30.4013 33.5847C28.5631 32.968 26.772 32.2565 24.8867 31.6872L20.5503 30.1693C20.3147 30.1693 20.2204 30.027 20.079 29.8847Z" fill="#EC272B"/>
</svg>
